# Blender v2.78 (sub 0) OBJ File: 'TruncOctTex.blend'
# www.blender.org
mtllib TruncOctTex.mtl
o Solid
v 0.666667 0.333333 0.000000
v 0.666667 0.000000 0.333333
v 0.666667 -0.333333 0.000000
v 0.666667 0.000000 -0.333333
v -0.666667 0.000000 -0.333333
v -0.666667 -0.333333 0.000000
v -0.666667 0.000000 0.333333
v -0.666667 0.333333 0.000000
v 0.333333 0.000000 -0.666667
v 0.000000 -0.333333 -0.666667
v -0.333333 0.000000 -0.666667
v 0.000000 0.333333 -0.666667
v -0.333333 0.000000 0.666667
v 0.000000 -0.333333 0.666667
v 0.333333 0.000000 0.666667
v 0.000000 0.333333 0.666667
v 0.000000 0.666667 -0.333333
v -0.333333 0.666667 0.000000
v 0.000000 0.666667 0.333333
v 0.333333 0.666667 0.000000
v 0.333333 -0.666667 0.000000
v 0.000000 -0.666667 0.333333
v -0.333333 -0.666667 0.000000
v 0.000000 -0.666667 -0.333333
vt 0.0790 0.5405
vt 0.0790 0.4533
vt 0.2370 0.4533
vt 0.2370 0.5405
vt 0.3192 0.1511
vt 0.4104 0.1511
vt 0.4104 0.3022
vt 0.3192 0.3022
vt 0.0000 0.0755
vt 0.1368 0.0000
vt 0.1824 0.0755
vt 0.0456 0.1511
vt 0.6474 0.6106
vt 0.6474 0.6978
vt 0.4894 0.6978
vt 0.4894 0.6106
vt 0.0456 0.3022
vt 0.1824 0.3777
vt 0.1368 0.4533
vt 0.0000 0.3777
vt 0.6474 0.0000
vt 0.6474 0.0872
vt 0.4894 0.0872
vt 0.4894 0.0000
vt 0.4104 0.4798
vt 0.4894 0.3489
vt 0.6474 0.3489
vt 0.7264 0.4798
vt 0.7264 0.2181
vt 0.6474 0.3489
vt 0.4894 0.3489
vt 0.4104 0.2181
vt 0.0790 0.8022
vt 0.0000 0.6713
vt 0.3159 0.6713
vt 0.2370 0.8022
vt 0.7264 0.8310
vt 0.7264 0.6799
vt 0.8632 0.6043
vt 1.0000 0.6799
vt 1.0000 0.8310
vt 0.8632 0.9065
vt 0.8632 0.3022
vt 1.0000 0.3777
vt 1.0000 0.5288
vt 0.8632 0.6043
vt 0.7264 0.5288
vt 0.7264 0.3777
vt 0.7264 0.0755
vt 0.8632 0.0000
vt 1.0000 0.0755
vt 1.0000 0.2266
vt 0.8632 0.3022
vt 0.7264 0.2266
vt 0.6841 0.9245
vt 0.5472 1.0000
vt 0.4104 0.9245
vt 0.4104 0.7734
vt 0.5472 0.6978
vt 0.6841 0.7734
vn 1.0000 0.0000 0.0000
vn -1.0000 0.0000 0.0000
vn 0.0000 0.0000 -1.0000
vn 0.0000 0.0000 1.0000
vn 0.0000 1.0000 0.0000
vn 0.0000 -1.0000 0.0000
vn -0.5774 0.5774 -0.5774
vn -0.5774 0.5774 0.5774
vn -0.5774 -0.5774 0.5774
vn 0.5774 0.5774 -0.5774
vn -0.5774 -0.5774 -0.5774
vn 0.5774 -0.5774 0.5774
vn 0.5774 -0.5774 -0.5774
vn 0.5774 0.5774 0.5774
usemtl Material
s off
f 1/1/1 2/2/1 3/3/1 4/4/1
f 5/5/2 6/6/2 7/7/2 8/8/2
f 9/9/3 10/10/3 11/11/3 12/12/3
f 13/13/4 14/14/4 15/15/4 16/16/4
f 17/17/5 18/18/5 19/19/5 20/20/5
f 21/21/6 22/22/6 23/23/6 24/24/6
f 18/18/7 17/17/7 12/12/7 11/11/7 5/5/7 8/8/7
f 19/25/8 18/26/8 8/27/8 7/28/8 13/13/8 16/16/8
f 23/23/9 22/22/9 14/29/9 13/30/9 7/31/9 6/32/9
f 17/33/10 20/34/10 1/1/10 4/4/10 9/35/10 12/36/10
f 24/37/11 23/38/11 6/39/11 5/40/11 11/41/11 10/42/11
f 22/43/12 21/44/12 3/45/12 2/46/12 15/47/12 14/48/12
f 21/49/13 24/50/13 10/51/13 9/52/13 4/53/13 3/54/13
f 20/55/14 19/56/14 16/57/14 15/58/14 2/59/14 1/60/14
